<svg width="24" height="24" viewBox="0 0 24 24" fill="none" xmlns="http://www.w3.org/2000/svg">
<path d="M10.5099 3.66454C11.3048 2.77653 12.6952 2.77653 13.4901 3.66454L14.1909 4.44731C14.596 4.89988 15.1849 5.14379 15.7914 5.11026L16.8404 5.05227C18.0304 4.98648 19.0135 5.96958 18.9477 7.15962L18.8898 8.20863C18.8562 8.81513 19.1001 9.404 19.5527 9.80915L20.3355 10.5099C21.2235 11.3048 21.2235 12.6952 20.3355 13.4901L19.5527 14.1909C19.1001 14.596 18.8562 15.1849 18.8898 15.7914L18.9477 16.8404C19.0135 18.0304 18.0304 19.0135 16.8404 18.9477L15.7914 18.8898C15.1849 18.8562 14.596 19.1001 14.1909 19.5527L13.4901 20.3355C12.6952 21.2235 11.3048 21.2235 10.5099 20.3355L9.80915 19.5527C9.404 19.1001 8.81513 18.8562 8.20863 18.8898L7.15962 18.9477C5.96958 19.0135 4.98648 18.0304 5.05227 16.8404L5.11026 15.7914C5.14379 15.1849 4.89988 14.596 4.44731 14.1909L3.66454 13.4901C2.77653 12.6952 2.77653 11.3048 3.66454 10.5099L4.44731 9.80915C4.89988 9.404 5.14379 8.81513 5.11026 8.20863L5.05227 7.15962C4.98648 5.96958 5.96958 4.98648 7.15962 5.05227L8.20863 5.11026C8.81513 5.14379 9.404 4.89988 9.80915 4.44731L10.5099 3.66454Z" fill="#D7356D" stroke="#D7356D" stroke-width="2"/>
<path d="M9.5 9.5H9.51V9.51H9.5V9.5Z" stroke="#FFC6DA" stroke-width="3" stroke-linejoin="round"/>
<path d="M14.5 14.5H14.51V14.51H14.5V14.5Z" stroke="#FFC6DA" stroke-width="3" stroke-linejoin="round"/>
<path d="M15 9L9 15" stroke="#FFC6DA" stroke-width="2" stroke-linecap="round" stroke-linejoin="round"/>
</svg>
