<svg width="390" height="142" viewBox="0 0 390 142" fill="none" xmlns="http://www.w3.org/2000/svg">
<path d="M33.6672 86.7511C5.0783 100.091 2.44511 92.3092 0 86.7511V40.3008H287L390 41.4199V75.3874V89.6705V107.609C370.7 129.157 355.695 99.7363 341.019 88.5915C318.68 71.6276 306.582 137.673 287 141.669C270.698 144.995 254.783 122.641 245.571 102.195C215.415 35.2566 207.401 109.843 184.323 121.291C153.529 136.568 164.471 40.501 117.929 96.4495C95.6327 123.253 82.2157 102.409 75.5322 92.0265L75.4222 91.8555C71.2216 83.0645 62.2562 73.4115 33.6672 86.7511Z" fill="#563C3C"/>
<path d="M33.7841 76.5411C5.09594 89.8785 2.4536 82.0983 0 76.5411V30.0984L287 30.206L390 31.3636V75.3874V80.9244V98.8526C371.133 118.417 355.813 88.6785 342.203 78.3812C316.704 59.0883 304.738 124.531 287 130.648C271.156 136.113 255.988 113.134 246.424 91.982C216.157 25.0413 208.126 99.6262 184.964 111.075C154.036 126.362 165.036 30.3054 118.339 86.2379C95.9648 113.037 82.5012 92.1968 75.7945 81.8156L75.684 81.6447C71.4689 72.8552 62.4724 63.2037 33.7841 76.5411Z" fill="#FFC6DA"/>
<path d="M33.7841 67.3591C5.09594 80.6965 2.4536 72.9163 0 67.3591V20.9164L287 21.0239L390 22.1816V89.6705C371.133 109.235 355.813 79.4965 342.203 69.1992C316.704 49.9062 304.738 115.349 287 121.466C271.156 126.931 255.988 103.952 246.424 82.7999C216.157 15.8592 208.126 90.4442 184.964 101.893C154.036 117.18 165.036 21.1233 118.339 77.0559C95.9648 103.855 82.5012 83.0148 75.7945 72.6336L75.684 72.4627C71.4689 63.6732 62.4724 54.0217 33.7841 67.3591Z" fill="#563C3C"/>
<path d="M33.7841 53.0759C5.09594 66.4133 2.4536 58.6332 0 53.0759V0L287 -7.08831e-07L390 0C390 95.7384 390 75.3874 390 75.3874C371.829 94.2303 354.033 67.4103 341.771 55.1396C319.814 33.1691 302.826 101.725 287 107.183C271.156 112.647 255.988 89.6687 246.424 68.5168C216.157 1.5761 208.126 76.161 184.964 87.6102C154.036 102.897 165.036 6.84018 118.339 62.7727C95.9648 89.5718 82.5012 68.7316 75.7945 58.3505L75.684 58.1795C71.4689 49.39 62.4724 39.7385 33.7841 53.0759Z" fill="#D7356D"/>
</svg>
