<?xml version="1.0" encoding="UTF-8"?>
<svg version="1.1" xmlns="http://www.w3.org/2000/svg" width="780" height="314">
<path d="M0 0 C257.4 0 514.8 0 780 0 C780 246 780 246 776 251 C767.81610341 258.03686227 760.61075217 262.43105955 749.6875 261.9375 C728.93382699 259.64227423 714.59858149 246.95283997 701.9140625 231.265625 C700.08279325 228.94080214 698.2870191 226.59034084 696.49609375 224.234375 C686.52417212 210.82968392 686.52417212 210.82968392 672 204 C660.17600158 203.69075696 651.74379474 208.50049637 643.3203125 216.48828125 C636.4461552 223.92949866 632.59831418 232.65466403 629 242 C620.79993001 263.15952376 612.28910571 284.65491798 596 301 C595.29101562 301.7321875 594.58203125 302.464375 593.8515625 303.21875 C586.26052966 310.56314279 578.16166935 314.21020244 567.5625 314.625 C554.97513754 314.13642005 545.56160433 308.8364219 536 301 C535.21882812 300.3709375 534.43765625 299.741875 533.6328125 299.09375 C527.62142589 294.01839245 522.7722153 288.23309753 518 282 C517.24203125 281.030625 516.4840625 280.06125 515.703125 279.0625 C504.36366581 263.94322109 495.7309431 246.94682727 487.75 229.875 C479.29593165 211.8439162 468.08662198 192.22711343 449.1875 183.5625 C440.7436087 180.5384087 432.35663603 181.00777905 424.2421875 184.75390625 C409.32886635 193.04197149 404.71736004 210.17551751 400.15771484 225.48242188 C394.89718235 243.08219868 389.28986517 260.65373428 373 271 C372.37351562 271.41378906 371.74703125 271.82757813 371.1015625 272.25390625 C365.58381324 275.48573081 360.28083586 275.97506683 354 275 C342.32559203 271.47464767 334.43037255 261.79777716 328.76611328 251.453125 C322.16230318 238.87443909 317.63502954 226.16491938 315.125 212.1875 C313.49765237 204.7017009 309.27459435 198.1830629 302.90625 193.9375 C294.24018951 189.67550304 284.93027813 189.80143 275.8125 192.625 C259.06522568 198.9189822 245.41193044 211.81035605 234.4375 225.625 C226.84504072 235.05521002 214.74403643 247.1129023 202 249 C188.10595735 249.99710188 179.25291123 247.67965647 168.59375 238.47265625 C159.83065451 230.11868118 153.65811638 219.61012749 147.37890625 209.3515625 C142.37864153 201.41076269 136.46332123 195.5676379 127.36328125 192.66015625 C105.65819409 188.39980813 86.51766613 196.24599061 66.96728516 204.72167969 C25.46709559 222.6001553 25.46709559 222.6001553 10 217 C4.18639963 213.98139981 3.55090967 212.21409192 0 206 C0 138.02 0 70.04 0 0 Z " fill="#D6356C" transform="translate(0,0)"/>
<path d="M0 0 C3.58297887 2.78097488 6.8188393 5.77031312 10 9 C10.69867188 9.69996094 11.39734375 10.39992187 12.1171875 11.12109375 C22.60029233 22.23644809 28.84232339 36.34562799 35.42626953 49.94628906 C54.34098015 89.02946849 54.34098015 89.02946849 85.0625 118.875 C85.64040283 119.25696533 86.21830566 119.63893066 86.8137207 120.0324707 C94.82312861 125.07938594 102.74890365 125.86108057 112 125 C125.47818468 121.93147957 134.71767704 111.08449778 142 100 C150.27588812 86.82665182 156.38300037 72.7320478 161.8046875 58.1875 C168.58495204 40.04125761 176.91495904 27.53144482 194.66015625 18.671875 C202.68889829 15.31375609 211.35886308 14.36123397 219.796875 16.8125 C229.83005006 21.29938574 236.24134975 30.15017477 242.76879883 38.62133789 C252.65030389 51.38459038 263.28854243 62.89867988 278 70 C278.62003906 70.34160156 279.24007812 70.68320313 279.87890625 71.03515625 C287.34177899 74.62468117 298.18500196 74.44635371 306.04296875 72.0859375 C311.52078378 69.45318919 316.17990962 65.66323916 321 62 C321.0990984 67.03534236 321.1715758 72.07011342 321.21972656 77.10620117 C321.23980505 78.81821586 321.26707392 80.53016228 321.30175781 82.24194336 C321.35044401 84.70704008 321.37300573 87.1712279 321.390625 89.63671875 C321.41127014 90.39836838 321.43191528 91.16001801 321.45318604 91.94474792 C321.4547381 95.64540406 321.16061947 97.7517394 319.13061523 100.8894043 C312.11549993 107.83860469 304.08886156 113.7987678 293.97265625 114.0859375 C274.08256286 113.18721747 260.84464927 102.98073335 247.77636719 88.97851562 C244.1212373 84.90743638 240.80502112 80.58727549 237.49609375 76.234375 C227.52417212 62.82968392 227.52417212 62.82968392 213 56 C201.17600158 55.69075696 192.74379474 60.50049637 184.3203125 68.48828125 C177.4461552 75.92949866 173.59831418 84.65466403 170 94 C161.79993001 115.15952376 153.28910571 136.65491798 137 153 C136.29101562 153.7321875 135.58203125 154.464375 134.8515625 155.21875 C127.26052966 162.56314279 119.16166935 166.21020244 108.5625 166.625 C95.97513754 166.13642005 86.56160433 160.8364219 77 153 C76.21882812 152.3709375 75.43765625 151.741875 74.6328125 151.09375 C68.62142589 146.01839245 63.7722153 140.23309753 59 134 C58.24203125 133.030625 57.4840625 132.06125 56.703125 131.0625 C45.36366581 115.94322109 36.7309431 98.94682727 28.75 81.875 C20.29593165 63.8439162 9.08662198 44.22711343 -9.8125 35.5625 C-18.2563913 32.5384087 -26.64336397 33.00777905 -34.7578125 36.75390625 C-49.67113365 45.04197149 -54.28263996 62.17551751 -58.84228516 77.48242188 C-64.10281765 95.08219868 -69.71013483 112.65373428 -86 123 C-86.62648438 123.41378906 -87.25296875 123.82757813 -87.8984375 124.25390625 C-93.41618676 127.48573081 -98.71916414 127.97506683 -105 127 C-116.67440797 123.47464767 -124.56962745 113.79777716 -130.23388672 103.453125 C-136.83769682 90.87443909 -141.36497046 78.16491938 -143.875 64.1875 C-145.50234763 56.7017009 -149.72540565 50.1830629 -156.09375 45.9375 C-164.75981049 41.67550304 -174.06972187 41.80143 -183.1875 44.625 C-199.93477432 50.9189822 -213.58806956 63.81035605 -224.5625 77.625 C-232.15495928 87.05521002 -244.25596357 99.1129023 -257 101 C-270.89404265 101.99710188 -279.74708877 99.67965647 -290.40625 90.47265625 C-299.16934549 82.11868118 -305.34188362 71.61012749 -311.62109375 61.3515625 C-316.62135847 53.41076269 -322.53667877 47.5676379 -331.63671875 44.66015625 C-353.34180591 40.39980813 -372.48233387 48.24599061 -392.03271484 56.72167969 C-433.53290441 74.6001553 -433.53290441 74.6001553 -449 69 C-454.01807195 66.39446264 -456.9269418 63.2410187 -459 58 C-459.50773096 54.76707983 -459.46896344 51.61358574 -459.390625 48.34765625 C-459.38496521 47.44752304 -459.37930542 46.54738983 -459.37347412 45.61997986 C-459.3512223 42.76692769 -459.30104799 39.91516756 -459.25 37.0625 C-459.22992048 35.11915886 -459.21167226 33.17579789 -459.1953125 31.23242188 C-459.15139435 26.48778932 -459.08244565 21.74411313 -459 17 C-457.67934716 18.98097926 -456.38684309 20.98105106 -455.125 23 C-452.23159557 27.08480626 -449.88759393 29.05455869 -445 30 C-442.93996346 30.11858309 -440.87590994 30.17517378 -438.8125 30.1875 C-437.74644531 30.20167969 -436.68039062 30.21585938 -435.58203125 30.23046875 C-428.4941742 29.77443433 -421.71999397 27.78356176 -415 25.5625 C-414.24871826 25.31443604 -413.49743652 25.06637207 -412.72338867 24.81079102 C-404.6226084 22.03024193 -396.87375234 18.48829563 -389.06860352 14.97900391 C-381.17383969 11.45143981 -373.32457464 8.35948066 -365 6 C-363.1746875 5.45472656 -363.1746875 5.45472656 -361.3125 4.8984375 C-356.0977896 3.6242013 -350.9046256 3.67009894 -345.5625 3.6875 C-344.57701172 3.67138672 -343.59152344 3.65527344 -342.57617188 3.63867188 C-331.15811866 3.63110524 -323.3306702 6.88392879 -315.15625 14.78125 C-311.09430854 19.12823998 -308.45963445 23.72895444 -305.73828125 28.98828125 C-302.41647938 34.74358292 -298.15487381 39.83040454 -294 45 C-292.97519531 46.33224609 -292.97519531 46.33224609 -291.9296875 47.69140625 C-286.30280165 54.42316645 -276.92747386 60.44750577 -268.06640625 61.2734375 C-252.93541679 61.7120169 -242.38226101 55.61004677 -231.37109375 45.61328125 C-226.43361709 40.81149097 -222.08787713 35.7154117 -217.84375 30.30078125 C-207.96138488 17.96876207 -194.02066317 8.00688772 -179 3 C-169.28437669 2.27417969 -160.04239977 1.67992904 -152 8 C-145.36932916 14.20433329 -142.37717706 19.48087169 -140.6875 28.375 C-136.46254252 48.45400586 -128.15471426 70.96475662 -111.17578125 83.66015625 C-105.56747013 87.1137482 -100.47698587 88.00613373 -94 87 C-79.76530726 82.01694154 -72.40144758 72.03125938 -66 59 C-62.72448742 51.93425143 -60.60400087 44.66966487 -58.51782227 37.18896484 C-53.7576321 20.18661212 -48.31395497 5.36570311 -32.33203125 -3.87109375 C-21.53258777 -9.09896505 -9.54613 -6.44363775 0 0 Z " fill="#573D3D" transform="translate(459,148)"/>
<path d="M0 0 C22.47506431 11.26936652 33.36667651 34.86235034 43.7578125 56.3828125 C51.62655365 72.5020388 59.77305173 88.13386758 70.7578125 102.3828125 C71.19351563 102.95161133 71.62921875 103.52041016 72.078125 104.10644531 C81.31096126 116.00519555 93.04464689 127.6084818 108.640625 129.78515625 C120.73984871 130.20643841 130.05610813 124.92973516 138.7578125 116.8828125 C144.03298603 111.34700786 147.9170374 104.94739445 151.7578125 98.3828125 C152.14694824 97.72506836 152.53608398 97.06732422 152.93701172 96.38964844 C159.0608656 85.87799429 163.56869123 74.93412149 167.8203125 63.5703125 C174.56055151 45.61382588 182.55685272 29.30414908 200.7578125 20.3828125 C208.1549208 17.43438764 218.52105512 16.5304909 226.0703125 19.6953125 C234.52527784 24.92500011 240.56343038 34.33329744 246.57470703 42.10327148 C260.07894105 59.43901677 275.71160438 74.90460704 298.48046875 77.8671875 C308.87203695 78.27425655 315.585192 75.30602805 323.3203125 68.5703125 C323.96097656 67.96574219 324.60164062 67.36117187 325.26171875 66.73828125 C326.7578125 65.3828125 326.7578125 65.3828125 327.7578125 65.3828125 C328.03247956 69.34685365 328.23049288 73.30713453 328.36206055 77.27856445 C328.44375402 79.28209087 328.58363705 81.28297346 328.72460938 83.28320312 C328.98905816 92.82740023 328.98905816 92.82740023 325.50634766 97.22705078 C322.70359728 99.59344481 319.92160739 101.53226546 316.7578125 103.3828125 C316.0982959 103.77525146 315.4387793 104.16769043 314.75927734 104.57202148 C310.52165202 106.69946977 306.21315132 106.92471155 301.5703125 106.8828125 C300.8263623 106.87709229 300.08241211 106.87137207 299.31591797 106.86547852 C292.34865955 106.64244815 286.85978193 104.76316488 280.7578125 101.3828125 C279.8709375 100.92132813 278.9840625 100.45984375 278.0703125 99.984375 C266.13093475 93.14699879 257.0082042 82.30404326 248.73266602 71.51367188 C237.38827871 56.19644443 237.38827871 56.19644443 220.4765625 48.921875 C205.83104188 48.24144152 194.38494992 54.58455691 183.765625 64.18359375 C175.03047547 73.24873781 171.0950387 85.92719673 166.80883789 97.48535156 C163.69420208 105.78206469 159.94578225 113.58295197 155.7578125 121.3828125 C155.44376465 121.98673828 155.1297168 122.59066406 154.80615234 123.21289062 C147.42354868 137.3893248 136.99132159 152.78934182 121.0078125 157.9453125 C110.3459127 160.01845968 100.8061966 158.27495156 91.72265625 152.4296875 C66.10665994 133.90585704 52.05109201 104.87918251 38.64941406 77.08398438 C29.80185917 58.75749977 19.78464661 41.08624526 1.7578125 30.3828125 C0.6853125 29.7434375 -0.3871875 29.1040625 -1.4921875 28.4453125 C-9.95974826 26.04617029 -19.00439197 26.27648325 -27.0078125 30.08203125 C-43.1249628 39.4649177 -47.30495988 57.66879849 -52.2421875 74.3828125 C-57.62750218 92.29746537 -65.04036618 109.09131777 -82.2421875 118.3828125 C-87.82063695 120.94660068 -93.44534495 121.53777189 -99.38671875 119.73046875 C-114.80475896 112.64486053 -123.18656245 96.21076661 -129.13085938 81.12792969 C-131.97456867 73.4472876 -134.25376553 65.8107776 -135.7421875 57.7578125 C-137.43945073 49.31051389 -140.90886608 44.79709966 -147.9296875 39.9453125 C-155.33291123 35.25276827 -163.73177295 35.5307962 -172.2421875 36.3828125 C-190.22740666 40.70516881 -206.02957737 56.72420314 -217.13671875 70.78515625 C-226.34885025 82.15077304 -238.78940855 92.94964367 -253.80078125 94.828125 C-266.07972316 95.22464627 -274.32646882 90.71727125 -283.60327148 82.92407227 C-286.67670411 80.03377282 -289.15164292 76.68553007 -291.6796875 73.3203125 C-292.25098389 72.56878906 -292.82228027 71.81726563 -293.41088867 71.04296875 C-297.26965632 65.88988436 -300.50796917 60.65322444 -303.64453125 55.03515625 C-308.20356061 47.46649871 -313.9781943 41.70621371 -322.2421875 38.3828125 C-345.66080196 32.98078138 -366.08378164 41.19529969 -387.03369141 50.49389648 C-394.49431061 53.80087565 -401.96990286 56.94211975 -409.6796875 59.6328125 C-410.84830322 60.04539307 -410.84830322 60.04539307 -412.04052734 60.46630859 C-421.10493024 63.53745154 -433.00848966 65.70019985 -442.2421875 62.2578125 C-447.33386256 59.07551559 -450.38378297 55.15236567 -452.2421875 49.3828125 C-452.46923828 46.24487305 -452.46923828 46.24487305 -452.4375 42.76953125 C-452.43105469 41.52236328 -452.42460937 40.27519531 -452.41796875 38.99023438 C-452.40121094 37.69666016 -452.38445312 36.40308594 -452.3671875 35.0703125 C-452.35816406 33.75740234 -452.34914063 32.44449219 -452.33984375 31.09179688 C-452.31630547 27.85528337 -452.2834227 24.61914101 -452.2421875 21.3828125 C-450.5881001 23.52179676 -449.21929695 25.43100312 -448.0546875 27.8828125 C-445.38543968 31.56453363 -442.59040564 33.11713398 -438.2421875 34.3828125 C-426.02513481 35.80156701 -415.12585915 31.89563124 -403.8046875 27.7578125 C-402.86093262 27.41516357 -401.91717773 27.07251465 -400.94482422 26.71948242 C-394.44883136 24.3150651 -388.14795593 21.61138356 -381.8671875 18.6953125 C-373.49177349 14.81002353 -365.13990264 11.82250859 -356.2421875 9.3828125 C-355.05882812 9.01542969 -355.05882812 9.01542969 -353.8515625 8.640625 C-341.93536364 5.32046272 -326.94636804 6.05095385 -316.1171875 12.0078125 C-308.27671318 17.04464972 -304.13774485 23.31951552 -299.89453125 31.45703125 C-292.35831378 44.80130285 -281.22239847 59.23353772 -266.2421875 64.2578125 C-256.13736676 66.83446418 -248.58976269 65.01219356 -239.2421875 60.3828125 C-235.38732808 57.93104423 -231.79697629 55.24829129 -228.2421875 52.3828125 C-227.38109375 51.71636719 -226.52 51.04992187 -225.6328125 50.36328125 C-223.50210382 48.59813533 -221.76923826 46.86693841 -219.9921875 44.7578125 C-215.82120613 39.89166757 -211.57916094 35.10202767 -207.2421875 30.3828125 C-206.54351562 29.61710937 -205.84484375 28.85140625 -205.125 28.0625 C-196.99529412 19.51588613 -187.33804274 12.51521949 -176.2421875 8.3828125 C-175.3140625 7.9703125 -174.3859375 7.5578125 -173.4296875 7.1328125 C-164.22975138 4.96812165 -155.64060595 6.12389888 -147.2421875 10.3828125 C-141.42505316 14.00065219 -137.62858151 18.9862 -135.2421875 25.3828125 C-134.58756093 28.53980192 -134.04780679 31.69957047 -133.53491211 34.88208008 C-130.15165853 54.40950841 -119.90539924 75.57150454 -104.18359375 88.01171875 C-98.70212704 91.28236521 -92.41970199 91.29267898 -86.2421875 90.3828125 C-73.19615712 86.13439338 -65.8329567 76.2390208 -59.75390625 64.51171875 C-55.55712526 55.45074416 -52.92583162 45.94453302 -50.30883789 36.328125 C-46.23694635 21.80149095 -40.10416701 8.94388156 -26.8671875 0.8203125 C-18.05803159 -4.11561137 -9.26599841 -3.77503639 0 0 Z " fill="#573C3D" transform="translate(452.2421875,115.6171875)"/>
<path d="M0 0 C3.58297887 2.78097488 6.8188393 5.77031312 10 9 C10.69867188 9.69996094 11.39734375 10.39992187 12.1171875 11.12109375 C22.60029233 22.23644809 28.84232339 36.34562799 35.42626953 49.94628906 C54.34098015 89.02946849 54.34098015 89.02946849 85.0625 118.875 C85.64040283 119.25696533 86.21830566 119.63893066 86.8137207 120.0324707 C94.82312861 125.07938594 102.74890365 125.86108057 112 125 C125.47818468 121.93147957 134.71767704 111.08449778 142 100 C150.27588812 86.82665182 156.38300037 72.7320478 161.8046875 58.1875 C168.58495204 40.04125761 176.91495904 27.53144482 194.66015625 18.671875 C202.68889829 15.31375609 211.35886308 14.36123397 219.796875 16.8125 C229.83005006 21.29938574 236.24134975 30.15017477 242.76879883 38.62133789 C252.65030389 51.38459038 263.28854243 62.89867988 278 70 C278.62003906 70.34160156 279.24007812 70.68320313 279.87890625 71.03515625 C287.34177899 74.62468117 298.18500196 74.44635371 306.04296875 72.0859375 C311.48609565 69.46986101 316.32522062 65.7998905 321 62 C322.35842997 77.69741302 322.35842997 77.69741302 319.34765625 82.80078125 C317.01583842 84.91130178 314.73759679 86.456028 312 88 C311.195625 88.51949219 310.39125 89.03898437 309.5625 89.57421875 C301.49676194 94.29215848 294.03718862 93.80202367 285.125 91.9375 C263.02073753 85.71978488 249.91990474 67.94588839 236.3984375 50.6796875 C230.44679733 43.17366708 224.83918917 36.69641193 215 35 C203.34023879 33.6976881 192.2775962 38.0936744 183 45 C172.35504736 54.1287576 166.95282913 64.29033294 162.25 77.3125 C153.30642962 101.23817036 142.37321512 129.45709375 118.5625 142.31640625 C110.14381502 146.09166029 102.27124266 146.01357879 93.57421875 143.10546875 C80.65448823 137.5572385 71.39811084 127.95527271 63 117 C62.60022949 116.48050781 62.20045898 115.96101563 61.78857422 115.42578125 C49.78217041 99.67780261 41.18867214 81.85905308 32.6328125 64.08203125 C22.92945508 44.07457789 11.40490358 22.45497637 -10.5625 14.0625 C-18.40355133 11.81221611 -26.74198335 12.1232778 -34 16 C-47.25806567 25.48461621 -52.628687 38.45959642 -56.875 53.625 C-62.89542056 74.98929398 -69.8642419 93.47954139 -90 105 C-94.98794562 107.49397281 -102.39826033 106.84359438 -107.578125 105.1640625 C-125.74105337 95.70155786 -134.26474673 73.33678625 -140.24609375 54.8671875 C-141.03383591 51.87131835 -141.47272066 48.94482098 -141.875 45.875 C-142.97193374 38.71211643 -145.62845578 32.90712758 -151.18359375 28.1171875 C-159.41002124 22.37394807 -167.08230477 21.09106969 -177 22 C-191.08783385 25.2052701 -201.96473063 34.14542108 -212 44 C-213.24136719 45.20076172 -213.24136719 45.20076172 -214.5078125 46.42578125 C-217.98296999 49.83614767 -221.32103177 53.3118149 -224.5 57 C-233.23065832 67.04623697 -244.56077925 79.0356896 -258.63671875 80.3359375 C-272.87052261 80.65644766 -281.84672969 76.79314353 -292.2109375 66.88671875 C-298.023887 60.81881533 -302.24448652 54.04700829 -306.59375 46.91796875 C-313.43446173 35.72037514 -319.9433061 26.92376941 -333.14453125 23.46484375 C-357.02866263 19.57672934 -378.82789567 29.55344855 -400.03613281 39.07177734 C-407.90616219 42.58330367 -415.7089107 45.63418982 -424 48 C-424.81855469 48.24234375 -425.63710938 48.4846875 -426.48046875 48.734375 C-433.77352206 50.64476772 -442.25695684 51.51032533 -449.375 48.625 C-454.36244001 45.56784535 -457.25057781 41.55279563 -459 36 C-459.67817854 29.67964197 -459.35108019 23.33244641 -459 17 C-457.67934716 18.98097926 -456.38684309 20.98105106 -455.125 23 C-452.23159557 27.08480626 -449.88759393 29.05455869 -445 30 C-442.93996346 30.11858309 -440.87590994 30.17517378 -438.8125 30.1875 C-437.74644531 30.20167969 -436.68039062 30.21585938 -435.58203125 30.23046875 C-428.4941742 29.77443433 -421.71999397 27.78356176 -415 25.5625 C-414.24871826 25.31443604 -413.49743652 25.06637207 -412.72338867 24.81079102 C-404.6226084 22.03024193 -396.87375234 18.48829563 -389.06860352 14.97900391 C-381.17383969 11.45143981 -373.32457464 8.35948066 -365 6 C-363.1746875 5.45472656 -363.1746875 5.45472656 -361.3125 4.8984375 C-356.0977896 3.6242013 -350.9046256 3.67009894 -345.5625 3.6875 C-344.57701172 3.67138672 -343.59152344 3.65527344 -342.57617188 3.63867188 C-331.15811866 3.63110524 -323.3306702 6.88392879 -315.15625 14.78125 C-311.09430854 19.12823998 -308.45963445 23.72895444 -305.73828125 28.98828125 C-302.41647938 34.74358292 -298.15487381 39.83040454 -294 45 C-292.97519531 46.33224609 -292.97519531 46.33224609 -291.9296875 47.69140625 C-286.30280165 54.42316645 -276.92747386 60.44750577 -268.06640625 61.2734375 C-252.93541679 61.7120169 -242.38226101 55.61004677 -231.37109375 45.61328125 C-226.43361709 40.81149097 -222.08787713 35.7154117 -217.84375 30.30078125 C-207.96138488 17.96876207 -194.02066317 8.00688772 -179 3 C-169.28437669 2.27417969 -160.04239977 1.67992904 -152 8 C-145.36932916 14.20433329 -142.37717706 19.48087169 -140.6875 28.375 C-136.46254252 48.45400586 -128.15471426 70.96475662 -111.17578125 83.66015625 C-105.56747013 87.1137482 -100.47698587 88.00613373 -94 87 C-79.76530726 82.01694154 -72.40144758 72.03125938 -66 59 C-62.72448742 51.93425143 -60.60400087 44.66966487 -58.51782227 37.18896484 C-53.7576321 20.18661212 -48.31395497 5.36570311 -32.33203125 -3.87109375 C-21.53258777 -9.09896505 -9.54613 -6.44363775 0 0 Z " fill="#FBC3D6" transform="translate(459,148)"/>
</svg>
