<?xml version="1.0" encoding="UTF-8"?>
<svg version="1.1" xmlns="http://www.w3.org/2000/svg" width="2880" height="584">
<path d="M0 0 C950.4 0 1900.8 0 2880 0 C2880 107.91 2880 215.82 2880 327 C2877.22006172 324.22006172 2875.12496649 321.91609699 2872.875 318.8125 C2850.1084697 289.41773937 2808.09013358 277.14560513 2772.87890625 272.25 C2706.74062734 264.09948005 2640.09729188 287.23639836 2587.875 327.3125 C2585.90838262 328.8645605 2583.94947264 330.42645873 2582 332 C2581.08476562 332.73476563 2580.16953125 333.46953125 2579.2265625 334.2265625 C2575.41905404 337.31402638 2571.6420437 340.42786466 2567.953125 343.65625 C2537.09893794 370.54733957 2501.07971697 384.84459065 2460 383 C2414.82242326 379.46101859 2374.10730687 353.72177007 2336.828125 330.05859375 C2275.73514274 288.70071831 2275.73514274 288.70071831 2204.7668457 281.02954102 C2183.35492362 286.18391626 2166.47228537 298.9095838 2151 314 C2150.37915527 314.60038086 2149.75831055 315.20076172 2149.11865234 315.81933594 C2142.062785 322.66149616 2135.25981988 329.5413894 2129.1640625 337.26953125 C2126.72309255 340.34938323 2124.18135566 343.32859899 2121.625 346.3125 C2117.37877436 351.29646118 2113.29388715 356.38643398 2109.27050781 361.55126953 C2104.10324696 368.17582229 2098.79231005 374.68144014 2093.4765625 381.18701172 C2092.16496107 382.79745355 2090.86302311 384.41575487 2089.5625 386.03515625 C2084.7718484 391.98069707 2079.74621301 397.63744077 2074.55078125 403.2265625 C2072.49258113 405.46442174 2070.5154647 407.73414793 2068.5625 410.0625 C2054.44905688 426.22088381 2033.95738179 442.10302601 2012.00390625 444.29980469 C2008.84997476 444.43758805 2005.71925871 444.46745343 2002.5625 444.4375 C2000.86395874 444.42614014 2000.86395874 444.42614014 1999.13110352 444.41455078 C1955.51334344 443.57297158 1920.99023302 418.83028125 1891.5859375 388.78125 C1887.89635615 384.94056604 1884.47813336 380.93807882 1881.1875 376.75 C1879.11217134 374.1410154 1876.96185829 371.62794829 1874.77026367 369.11743164 C1869.16649453 362.69474008 1863.92842644 356.06370394 1858.79492188 349.26074219 C1854.55482159 343.66411523 1850.11382586 338.28633803 1845.53125 332.96875 C1843.20086834 330.23558633 1840.97311704 327.44537237 1838.75 324.625 C1825.64396131 308.57774976 1809.62512245 292.4793134 1788 290 C1762.07330439 288.1941605 1739.28423163 298.9369797 1720.0625 315.5 C1694.50677 338.16145077 1681.17651766 367.15161222 1670.0559082 398.7590332 C1647.36009109 462.73161381 1614.22327903 544.63940714 1549 576 C1527.32241499 585.64730293 1502.67989016 587.68274701 1480 580 C1479.36594238 579.78569336 1478.73188477 579.57138672 1478.07861328 579.35058594 C1444.2721326 567.5282127 1414.0862387 541.4887701 1392.12109375 513.6796875 C1389.91575349 510.89356702 1387.6208512 508.20118244 1385.3125 505.5 C1369.40949288 486.38203311 1355.61336668 465.43967587 1343.13525391 443.95117188 C1342.34037801 442.58501097 1341.54011402 441.22197737 1340.73583984 439.86132812 C1325.44485864 413.98343159 1312.22370622 387.02527738 1299.93066406 359.61572266 C1287.8810882 332.83557015 1272.56899458 306.77567422 1254 284 C1253.49082031 283.37512695 1252.98164062 282.75025391 1252.45703125 282.10644531 C1231.2061948 256.25308194 1205.30283597 234.26122186 1171 230 C1150.03089369 228.12682921 1129.85506235 236.34491 1113.94140625 249.53515625 C1095.28961816 265.77586676 1082.8407457 286.93316912 1075.3125 310.3125 C1074.89551589 311.58216875 1074.47835475 312.85177937 1074.06103516 314.12133789 C1070.12649053 326.20218083 1066.63002587 338.41279909 1063.10012817 350.61639404 C1049.6138715 397.1908941 1031.33182462 446.51107977 987 472 C972.10287053 479.93801642 957.04546644 483.42940758 940.28515625 479.0234375 C905.8590997 467.43594832 884.06529937 433.98218581 868.4375 403.0625 C854.96003743 375.54239094 845.28476943 346.01672614 840.4375 315.75 C837.43774142 297.32197251 827.86218733 279.55031255 812.6015625 268.421875 C793.82965877 255.53771262 773.09776662 251.69752891 750.75390625 255.25390625 C724.57474049 260.4570495 701.56353752 273.28700536 681 290 C680.08089844 290.72703125 679.16179688 291.4540625 678.21484375 292.203125 C663.37886271 304.07190983 649.23698526 317.4541496 637 332 C635.04539269 334.29485647 633.0853705 336.58506613 631.125 338.875 C630.60502441 339.48303467 630.08504883 340.09106934 629.54931641 340.7175293 C625.80311382 345.08888018 621.99765171 349.39963734 618.12109375 353.65625 C616.72101539 355.20329791 615.33768105 356.76568665 613.97265625 358.34375 C591.86335453 383.70563056 561.30348992 407.5422445 527 412 C497.97128278 413.78105317 475.07750918 403.60662697 453.40625 384.7421875 C429.98356893 363.92986547 411.06302644 337.20209088 396.375 309.625 C391.74344068 300.95164277 386.46460703 293.39805259 380 286 C379.00419922 284.85337891 379.00419922 284.85337891 377.98828125 283.68359375 C362.62633949 267.22667082 339.50848415 258.12224836 317.32788086 256.77734375 C313.29929016 256.65956503 309.27992384 256.61348095 305.25 256.625 C304.5296759 256.62554382 303.80935181 256.62608765 303.06719971 256.62664795 C289.73463508 256.67260836 277.0237478 258.04140628 264 261 C262.62303955 261.30550781 262.62303955 261.30550781 261.21826172 261.6171875 C229.0217788 268.93380014 198.84858167 282.0891564 169.01098633 295.91894531 C73.31986172 339.93638659 73.31986172 339.93638659 30.9375 327.0703125 C14.40389883 320.95456717 7.52585708 308.05171416 0 293 C0 196.31 0 99.62 0 0 Z " fill="#563C3C" transform="translate(0,0)"/>
<path d="M0 0 C950.4 0 1900.8 0 2880 0 C2880 47.85 2880 95.7 2880 145 C2878.68 143.35 2877.36 141.7 2876 140 C2859.4183943 120.38311733 2839.09916926 108.44475549 2815 100 C2813.41058594 99.41798828 2813.41058594 99.41798828 2811.7890625 98.82421875 C2802.00176547 95.4975653 2791.7625092 94.05714722 2781.58618164 92.41723633 C2779.79663502 92.12852348 2778.01211896 91.80746169 2776.23291016 91.46069336 C2772.1753541 90.88248702 2768.20684609 90.81845278 2764.11328125 90.796875 C2762.82855171 90.78832489 2762.82855171 90.78832489 2761.51786804 90.77960205 C2759.70324932 90.77017936 2757.88861369 90.76362896 2756.07397461 90.75976562 C2753.3660453 90.75018936 2750.65891917 90.71919562 2747.95117188 90.6875 C2736.01881829 90.61474632 2724.71001614 91.74035301 2713 94 C2711.43560181 94.29028076 2711.43560181 94.29028076 2709.83959961 94.58642578 C2673.76851146 101.6148497 2640.05023669 116.99758662 2610 138 C2608.93007812 138.73347656 2607.86015625 139.46695313 2606.7578125 140.22265625 C2595.94804576 147.71563165 2585.8098063 156.07023673 2575.88671875 164.6953125 C2548.88780555 187.92259329 2517.18979526 203.32813255 2481.25 203.375 C2479.33247925 203.37777954 2479.33247925 203.37777954 2477.3762207 203.38061523 C2464.99642046 203.23498925 2452.83089601 201.9719668 2440.9375 198.4375 C2440.05811768 198.1792041 2439.17873535 197.9209082 2438.27270508 197.65478516 C2404.87030223 187.49770985 2374.60177968 169.3100476 2345.35253906 150.65283203 C2283.27451047 108.73659407 2283.27451047 108.73659407 2211.5625 101.5 C2192.80684626 106.13733969 2177.34391134 116.63715751 2163.4375 129.71484375 C2161.3835157 131.64045403 2159.2886635 133.45145472 2157.125 135.25 C2148.36925126 142.87307488 2140.67720474 151.93085005 2133.43359375 160.96875 C2130.96643586 164.04180701 2128.4598746 167.07888147 2125.94580078 170.11352539 C2120.4834821 176.71034818 2115.10344391 183.35976949 2109.83251953 190.11035156 C2105.6392167 195.4771591 2101.35299168 200.76165408 2097 206 C2096.57750977 206.50885742 2096.15501953 207.01771484 2095.71972656 207.54199219 C2089.03564654 215.57362962 2082.15957817 223.38901148 2075 231 C2074.22398437 231.84175781 2073.44796875 232.68351563 2072.6484375 233.55078125 C2060.02203028 246.78950588 2043.06779548 259.57448734 2025 264 C2024.278125 264.18304688 2023.55625 264.36609375 2022.8125 264.5546875 C2010.83729619 266.45076144 1997.81905325 265.15793837 1986 263 C1985.3488623 262.88172852 1984.69772461 262.76345703 1984.02685547 262.64160156 C1953.37940299 256.84960886 1926.9684851 240.54442652 1904 220 C1903.43764648 219.49936035 1902.87529297 218.9987207 1902.29589844 218.48291016 C1896.4958018 213.29600377 1890.79861147 208.09308005 1885.796875 202.11328125 C1883.94121945 199.93086896 1882.00983792 197.82931552 1880.05957031 195.73144531 C1874.44297122 189.68662355 1869.16889807 183.43424432 1864 177 C1862.96855083 175.73607831 1861.93592298 174.47311792 1860.90234375 173.2109375 C1855.80343759 166.97735155 1850.74565648 160.72657764 1845.875 154.3125 C1840.81023857 147.67478015 1835.44785748 141.32491194 1830 135 C1829.37351562 134.26007813 1828.74703125 133.52015625 1828.1015625 132.7578125 C1826.43285025 130.80706437 1824.72792778 128.89844696 1823 127 C1822.2884375 126.19949219 1821.576875 125.39898437 1820.84375 124.57421875 C1809.04763574 111.95467444 1794.27850833 105.20384696 1776.99194336 104.53173828 C1746.31096127 104.13092151 1719.69639563 121.13194322 1698.19921875 141.73828125 C1688.63539369 151.25552452 1680.85715455 162.42611201 1674 174 C1673.33484375 175.11117187 1672.6696875 176.22234375 1671.984375 177.3671875 C1666.11678113 187.5562239 1662.25331379 198.47641716 1658.265625 209.50244141 C1642.2770029 253.68704793 1624.55368001 297.95891371 1598 337 C1597.61279785 337.56976563 1597.2255957 338.13953125 1596.82666016 338.7265625 C1577.59101618 366.84079144 1552.43475555 394.01388462 1518 402 C1503.20845397 404.25351775 1489.24737038 403.57382025 1475 399 C1474.13632813 398.72285156 1473.27265625 398.44570313 1472.3828125 398.16015625 C1459.18353295 393.33819722 1446.82387537 385.86260095 1436 377 C1435.01257812 376.21496094 1434.02515625 375.42992187 1433.0078125 374.62109375 C1419.34708672 363.57121827 1406.74016726 350.89903999 1396 337 C1395.06560066 335.85163675 1394.12786471 334.70598349 1393.1875 333.5625 C1386.55807214 325.47019549 1380.42681758 317.13877031 1374.62597656 308.43432617 C1373.34931527 306.52297635 1372.06273892 304.61824871 1370.77246094 302.71606445 C1364.69102481 293.72161394 1359.00428554 284.54453283 1353.5 275.1875 C1353.08758057 274.48867706 1352.67516113 273.78985413 1352.25024414 273.06985474 C1349.48717012 268.38745301 1346.73813032 263.69702729 1344 259 C1343.45214844 258.06091797 1342.90429688 257.12183594 1342.33984375 256.15429688 C1335.7675668 244.81300002 1330.11114875 233.09569579 1324.53320312 221.23974609 C1321.43097577 214.68456185 1318.25818798 208.16311466 1315.09735107 201.63604736 C1312.06639025 195.37548531 1309.043268 189.11222975 1306.0859375 182.81640625 C1294.08661067 157.2977951 1280.69190505 132.08989274 1263 110 C1261.89591797 108.60974609 1261.89591797 108.60974609 1260.76953125 107.19140625 C1255.72517931 100.93154782 1250.4855516 94.87672692 1245 89 C1244.19175781 88.12601562 1243.38351562 87.25203125 1242.55078125 86.3515625 C1225.18332278 68.23125456 1200.61207849 51.53056565 1174.6796875 50.83203125 C1160.61752932 50.69635528 1148.8643082 51.85943689 1136 58 C1135.09507813 58.42023437 1134.19015625 58.84046875 1133.2578125 59.2734375 C1125.15838852 63.33488779 1118.67247718 68.9703785 1112 75 C1110.90365234 75.95326172 1110.90365234 75.95326172 1109.78515625 76.92578125 C1085.01879802 99.7675554 1076.42730062 135.70554186 1067.61328125 166.80078125 C1056.84784282 204.76880995 1044.3481618 243.3066551 1016 272 C1015.28714844 272.78503906 1014.57429687 273.57007813 1013.83984375 274.37890625 C1005.33654208 283.51796879 994.61194562 289.88082078 983.5625 295.5 C982.92497803 295.82621338 982.28745605 296.15242676 981.63061523 296.48852539 C969.5853628 302.37874315 954.76776545 303.10331904 942 299 C913.69320121 287.49779219 894.46966612 264.13065209 880 238 C879.54657227 237.18740723 879.09314453 236.37481445 878.62597656 235.53759766 C862.18410136 205.81152202 850.11008458 173.79785517 844.5 140.25 C841.90192394 124.82677986 837.00387503 112.08899184 827 100 C826.278125 99.01 825.55625 98.02 824.8125 97 C813.83965415 84.1328192 796.42902019 77.15772846 780 75 C739.3242379 72.6382861 705.13938004 90.81181917 675 117 C674.154375 117.73476562 673.30875 118.46953125 672.4375 119.2265625 C665.84823036 125.12321005 659.5515941 131.32274791 653.27529907 137.54946899 C651.85440998 138.95844151 650.42958212 140.36343847 649.00463867 141.76831055 C643.64658617 147.11966728 638.70743791 152.63712372 633.97631836 158.54931641 C631.5547482 161.55212323 629.00739562 164.36821224 626.375 167.1875 C623.43784024 170.34620841 620.53280225 173.51594965 617.75 176.8125 C607.89536091 188.10182402 597.08322734 198.15706619 585 207 C583.43185547 208.16789062 583.43185547 208.16789062 581.83203125 209.359375 C558.2897439 226.32151992 531.74978908 236.10006841 502.4296875 231.38671875 C484.82141538 227.7835722 468.25957381 217.25764577 455.30859375 205.15625 C453.19301389 203.18027693 451.02360223 201.30484161 448.8125 199.4375 C444.80326631 195.9214657 441.39625184 192.10459487 438 188 C437.53964355 187.4519873 437.07928711 186.90397461 436.60498047 186.33935547 C428.44420753 176.61187904 420.99820626 166.58989168 414 156 C413.31574951 154.97737061 413.31574951 154.97737061 412.61767578 153.93408203 C407.34832657 146.05311277 402.43422095 138.0976503 397.9375 129.75 C386.00446193 107.75632644 368.11680726 89.99715334 344 82 C338.06453238 80.37386212 332.05439956 79.09465209 326 78 C324.93523437 77.80664062 323.87046875 77.61328125 322.7734375 77.4140625 C303.98053374 75.35190122 285.40467269 77.10601684 267 81 C265.71730225 81.25692627 265.71730225 81.25692627 264.40869141 81.51904297 C233.05590649 87.85779789 203.66647235 100.64774844 174.70523071 113.84048462 C155.15028625 122.7413746 135.26845463 130.86133457 115 138 C114.01217529 138.35118896 114.01217529 138.35118896 113.00439453 138.70947266 C103.46334836 142.08213272 93.86600609 144.79596789 84 147 C83.01507568 147.22864746 83.01507568 147.22864746 82.01025391 147.46191406 C63.16062844 151.74318784 40.22246307 153.27186062 22.81640625 143.80859375 C11.06477281 136.26212179 5.35607328 124.49750433 0 112 C0 75.04 0 38.08 0 0 Z " fill="#D6356C" transform="translate(0,0)"/>
<path d="M0 0 C0.91007812 0.66386719 1.82015625 1.32773438 2.7578125 2.01171875 C16.92705869 13.03946541 29.45607317 26.50901223 40 41 C40.82134719 42.10306374 41.64296271 43.20592772 42.46484375 44.30859375 C62.00490907 70.82008498 76.99497147 100.36586975 90.625 130.25 C101.65928789 154.39172869 113.54856511 178.10942125 127 201 C127.48742676 201.84095215 127.97485352 202.6819043 128.47705078 203.54833984 C143.30666397 229.12806277 160.22251842 253.97262781 180 276 C180.47566406 276.53206055 180.95132812 277.06412109 181.44140625 277.61230469 C190.64870123 287.87956755 200.06507598 297.54574975 211 306 C211.52190918 306.4036377 212.04381836 306.80727539 212.58154297 307.22314453 C234.44233337 323.94713934 259.10295027 334.32643997 287 332 C291.16674305 331.37280064 295.01561647 330.35905685 299 329 C300.04414062 328.64808594 301.08828125 328.29617188 302.1640625 327.93359375 C314.41738742 323.5030956 325.18948416 317.58220735 335 309 C335.84433594 308.26523437 336.68867187 307.53046875 337.55859375 306.7734375 C340.07094609 304.54788337 342.54300813 302.28642384 345 300 C345.66644531 299.38769531 346.33289062 298.77539062 347.01953125 298.14453125 C353.41328926 292.03725527 358.6926462 285.04372195 364 278 C364.42039551 277.44570313 364.84079102 276.89140625 365.27392578 276.3203125 C372.47444022 266.76155098 378.6202728 256.62501 384.65283203 246.29931641 C385.80631643 244.33057482 386.9747638 242.37233433 388.15234375 240.41796875 C406.6857852 209.07409129 419.61451952 174.1738891 431.99047852 140.02709961 C446.18177434 100.99072066 470.95362172 68.31183795 509 50 C522.14804782 44.09910852 535.506984 39.61632671 550 39 C551.2271875 38.94714844 552.454375 38.89429688 553.71875 38.83984375 C570.984063 38.33989113 587.22209703 41.72453329 600.4375 53.5625 C601.96235365 55.03752183 603.48358035 56.51630883 605 58 C606.22011157 59.03163905 607.44843515 60.05370384 608.6875 61.0625 C612.54915459 64.36099663 615.728116 68.12816751 619 72 C619.90628366 73.04537184 620.81394099 74.08955369 621.72265625 75.1328125 C627.2479605 81.4943496 632.607697 87.9494749 637.77978516 94.60131836 C642.92574879 101.21558467 648.22534683 107.70243082 653.52783203 114.19140625 C654.82729371 115.78782617 656.11568394 117.39324434 657.40234375 119 C661.97670495 124.69106782 666.77684092 130.10226175 671.76098633 135.43286133 C674.33772658 138.18882421 676.85156036 140.96027499 679.25 143.875 C682.47132141 147.68117227 686.19704599 150.79125755 690 154 C690.94875 154.83660156 691.8975 155.67320312 692.875 156.53515625 C707.98705508 169.78301317 724.97872315 180.30620671 744 187 C744.93328125 187.33644531 745.8665625 187.67289063 746.828125 188.01953125 C769.35417645 195.57538017 792.52463106 197.13329091 814.49609375 187.4609375 C837.59955851 175.75666124 856.10283688 154.97131046 872 135 C873.01530321 133.75128208 874.03235409 132.50398391 875.05078125 131.2578125 C880.24063707 124.90591047 885.39292861 118.53052109 890.4375 112.0625 C896.80444374 103.9147725 903.36302138 95.92883894 910 88 C910.82419434 87.01483398 910.82419434 87.01483398 911.66503906 86.00976562 C932.89989469 60.75267336 960.51946395 32.18206294 995.29516602 28.77514648 C1031.23934846 27.03214286 1062.11387504 44.00718672 1092 62 C1092.9914502 62.59538574 1093.98290039 63.19077148 1095.00439453 63.80419922 C1104.11164038 69.28292896 1113.17948178 74.81828344 1122.13989258 80.53442383 C1146.80597298 96.26819077 1172.43360595 111.89798554 1200 122 C1200.62487305 122.23122559 1201.24974609 122.46245117 1201.89355469 122.70068359 C1209.08796735 125.32617704 1216.37378462 127.45379424 1223.8125 129.25 C1224.81603516 129.49496216 1224.81603516 129.49496216 1225.83984375 129.74487305 C1245.91083493 134.36169295 1269.36324517 134.29832415 1289 128 C1289.7429834 127.76925781 1290.4859668 127.53851563 1291.25146484 127.30078125 C1315.35758383 119.63871442 1336.93544148 106.61168552 1355.3671875 89.3359375 C1361.57915014 83.82443356 1368.34522124 78.95870737 1375 74 C1375.59828613 73.54979492 1376.19657227 73.09958984 1376.81298828 72.63574219 C1387.05271785 64.95372734 1397.91015937 58.37743746 1409 52 C1409.70995117 51.58862793 1410.41990234 51.17725586 1411.15136719 50.75341797 C1428.57420942 40.75856167 1447.66908326 33.37544209 1467 28 C1468.21558594 27.64421875 1469.43117188 27.2884375 1470.68359375 26.921875 C1502.04909205 18.31803309 1539.3845511 17.14193438 1571 25 C1571.85158691 25.19787109 1572.70317383 25.39574219 1573.58056641 25.59960938 C1583.43275712 27.8907303 1592.84216621 30.63405598 1602 35 C1602.6197168 35.29277832 1603.23943359 35.58555664 1603.87792969 35.88720703 C1622.69823955 44.83344906 1645.60687261 57.38871272 1655 77 C1655.77927392 81.32503445 1655.70329161 85.52712343 1655.5859375 89.91015625 C1655.57744781 91.11820419 1655.56895813 92.32625214 1655.56021118 93.57090759 C1655.52681576 97.40237291 1655.45155384 101.23167844 1655.375 105.0625 C1655.34488288 107.67119341 1655.31751016 110.27992005 1655.29296875 112.88867188 C1655.22706944 119.2598426 1655.12685715 125.62976696 1655 132 C1652.35317376 129.39428621 1650.0548013 126.81931135 1647.875 123.8125 C1625.1084697 94.41773937 1583.09013358 82.14560513 1547.87890625 77.25 C1481.74062734 69.09948005 1415.09729188 92.23639836 1362.875 132.3125 C1360.90838262 133.8645605 1358.94947264 135.42645873 1357 137 C1356.08476562 137.73476563 1355.16953125 138.46953125 1354.2265625 139.2265625 C1350.41905404 142.31402638 1346.6420437 145.42786466 1342.953125 148.65625 C1312.09893794 175.54733957 1276.07971697 189.84459065 1235 188 C1189.82242326 184.46101859 1149.10730687 158.72177007 1111.828125 135.05859375 C1050.73514274 93.70071831 1050.73514274 93.70071831 979.7668457 86.02954102 C958.35492362 91.18391626 941.47228537 103.9095838 926 119 C925.06873291 119.90057129 925.06873291 119.90057129 924.11865234 120.81933594 C917.062785 127.66149616 910.25981988 134.5413894 904.1640625 142.26953125 C901.72309255 145.34938323 899.18135566 148.32859899 896.625 151.3125 C892.37877436 156.29646118 888.29388715 161.38643398 884.27050781 166.55126953 C879.10324696 173.17582229 873.79231005 179.68144014 868.4765625 186.18701172 C867.16496107 187.79745355 865.86302311 189.41575487 864.5625 191.03515625 C859.7718484 196.98069707 854.74621301 202.63744077 849.55078125 208.2265625 C847.49258113 210.46442174 845.5154647 212.73414793 843.5625 215.0625 C829.44905688 231.22088381 808.95738179 247.10302601 787.00390625 249.29980469 C783.84997476 249.43758805 780.71925871 249.46745343 777.5625 249.4375 C775.86395874 249.42614014 775.86395874 249.42614014 774.13110352 249.41455078 C730.51334344 248.57297158 695.99023302 223.83028125 666.5859375 193.78125 C662.89635615 189.94056604 659.47813336 185.93807882 656.1875 181.75 C654.11217134 179.1410154 651.96185829 176.62794829 649.77026367 174.11743164 C644.16649453 167.69474008 638.92842644 161.06370394 633.79492188 154.26074219 C629.55482159 148.66411523 625.11382586 143.28633803 620.53125 137.96875 C618.20086834 135.23558633 615.97311704 132.44537237 613.75 129.625 C600.64396131 113.57774976 584.62512245 97.4793134 563 95 C537.07330439 93.1941605 514.28423163 103.9369797 495.0625 120.5 C469.50677 143.16145077 456.17651766 172.15161222 445.0559082 203.7590332 C422.36009109 267.73161381 389.22327903 349.63940714 324 381 C302.32241499 390.64730293 277.67989016 392.68274701 255 385 C254.36594238 384.78569336 253.73188477 384.57138672 253.07861328 384.35058594 C219.2721326 372.5282127 189.0862387 346.4887701 167.12109375 318.6796875 C164.91575349 315.89356702 162.6208512 313.20118244 160.3125 310.5 C144.40949288 291.38203311 130.61336668 270.43967587 118.13525391 248.95117188 C117.34037801 247.58501097 116.54011402 246.22197737 115.73583984 244.86132812 C100.44485864 218.98343159 87.22370622 192.02527738 74.93066406 164.61572266 C62.8810882 137.83557015 47.56899458 111.77567422 29 89 C28.49082031 88.37512695 27.98164062 87.75025391 27.45703125 87.10644531 C6.2061948 61.25308194 -19.69716403 39.26122186 -54 35 C-74.96910631 33.12682921 -95.14493765 41.34491 -111.05859375 54.53515625 C-129.71038184 70.77586676 -142.1592543 91.93316912 -149.6875 115.3125 C-150.10448411 116.58216875 -150.52164525 117.85177937 -150.93896484 119.12133789 C-154.87350947 131.20218083 -158.36997413 143.41279909 -161.89987183 155.61639404 C-175.3861285 202.1908941 -193.66817538 251.51107977 -238 277 C-252.89712947 284.93801642 -267.95453356 288.42940758 -284.71484375 284.0234375 C-319.1409003 272.43594832 -340.93470063 238.98218581 -356.5625 208.0625 C-370.03996257 180.54239094 -379.71523057 151.01672614 -384.5625 120.75 C-387.56225858 102.32197251 -397.13781267 84.55031255 -412.3984375 73.421875 C-431.17034123 60.53771262 -451.90223338 56.69752891 -474.24609375 60.25390625 C-500.42525951 65.4570495 -523.43646248 78.28700536 -544 95 C-544.91910156 95.72703125 -545.83820312 96.4540625 -546.78515625 97.203125 C-561.62113729 109.07190983 -575.76301474 122.4541496 -588 137 C-589.95460731 139.29485647 -591.9146295 141.58506613 -593.875 143.875 C-594.39497559 144.48303467 -594.91495117 145.09106934 -595.45068359 145.7175293 C-599.19688618 150.08888018 -603.00234829 154.39963734 -606.87890625 158.65625 C-608.27898461 160.20329791 -609.66231895 161.76568665 -611.02734375 163.34375 C-633.13664547 188.70563056 -663.69651008 212.5422445 -698 217 C-727.02871722 218.78105317 -749.92249082 208.60662697 -771.59375 189.7421875 C-795.01643107 168.92986547 -813.93697356 142.20209088 -828.625 114.625 C-833.25655932 105.95164277 -838.53539297 98.39805259 -845 91 C-845.99580078 89.85337891 -845.99580078 89.85337891 -847.01171875 88.68359375 C-862.37366051 72.22667082 -885.49151585 63.12224836 -907.67211914 61.77734375 C-911.70070984 61.65956503 -915.72007616 61.61348095 -919.75 61.625 C-920.4703241 61.62554382 -921.19064819 61.62608765 -921.93280029 61.62664795 C-935.26536492 61.67260836 -947.9762522 63.04140628 -961 66 C-962.37696045 66.30550781 -962.37696045 66.30550781 -963.78173828 66.6171875 C-995.9782212 73.93380014 -1026.15141833 87.0891564 -1055.98901367 100.91894531 C-1151.68013828 144.93638659 -1151.68013828 144.93638659 -1194.0625 132.0703125 C-1206.26999816 127.55478385 -1213.87575539 119.25885719 -1220 108 C-1220.40902557 107.33275406 -1220.81805115 106.66550812 -1221.23947144 105.9780426 C-1225.30025614 98.84707952 -1225.66626422 92.86563734 -1225.48828125 84.7734375 C-1225.48120651 83.54460846 -1225.47413177 82.31577942 -1225.46684265 81.04971313 C-1225.43904357 77.15750059 -1225.37632717 73.26677154 -1225.3125 69.375 C-1225.28739864 66.72267715 -1225.26458872 64.07033156 -1225.24414062 61.41796875 C-1225.18926412 54.94481359 -1225.10578196 48.47251282 -1225 42 C-1222.37342663 45.37467693 -1220.66208059 48.73140896 -1218.875 52.625 C-1212.80176144 65.06129575 -1204.80317354 72.00917266 -1192 77 C-1144.49939437 91.51813382 -1084.00446916 58.08486791 -1041.51953125 38.5703125 C-1025.27406628 31.12561188 -1008.94675098 24.66752957 -992 19 C-991.17661133 18.72188477 -990.35322266 18.44376953 -989.50488281 18.15722656 C-979.47876115 14.79456522 -969.31109939 12.29967466 -959 10 C-957.72382812 9.69255859 -957.72382812 9.69255859 -956.421875 9.37890625 C-944.42572793 6.51316001 -932.43087851 5.62408648 -920.125 5.6875 C-919.42477722 5.68865814 -918.72455444 5.68981628 -918.00311279 5.69100952 C-907.71050293 5.72464742 -897.97424798 6.25644079 -888 9 C-886.71222656 9.29003906 -886.71222656 9.29003906 -885.3984375 9.5859375 C-861.4636515 15.58912487 -841.57824007 33.43318892 -829.08496094 54.12353516 C-827.05126618 57.64085691 -825.23017359 61.26826422 -823.38061523 64.88452148 C-803.90408878 101.91508032 -771.66497175 143.13885507 -731.25 157.875 C-729.84201979 158.28140025 -728.42454641 158.65614397 -727 159 C-726.19691406 159.20238281 -725.39382813 159.40476562 -724.56640625 159.61328125 C-711.12922846 162.41507577 -694.91999479 162.97938485 -682 158 C-680.79730469 157.5978125 -679.59460938 157.195625 -678.35546875 156.78125 C-658.43507509 149.97666237 -641.30614924 138.28573929 -626 124 C-624.67096291 122.84918628 -623.33781024 121.70310316 -622 120.5625 C-614.41313471 113.94123574 -607.51159173 106.66834156 -601 99 C-600.10862606 97.96046294 -599.2166474 96.92144425 -598.32421875 95.8828125 C-597.32029335 94.71355811 -596.31638783 93.54428665 -595.3125 92.375 C-594.796875 91.77461914 -594.28125 91.17423828 -593.75 90.55566406 C-591.1665272 87.5432072 -588.59506681 84.52221447 -586.05078125 81.4765625 C-577.17729248 70.90102442 -567.7213466 60.71929187 -557.14453125 51.8125 C-555.42915839 50.3627131 -553.74596452 48.87488406 -552.07421875 47.375 C-526.25917554 24.36327926 -492.28741478 3.23608392 -456.6875 3.5625 C-455.50905518 3.57079834 -454.33061035 3.57909668 -453.11645508 3.58764648 C-432.33521135 3.98879572 -414.79682513 11.31683763 -400 26 C-387.44741347 39.43126758 -381.81967649 54.4289511 -378.81640625 72.23046875 C-370.2984545 122.34528917 -346.96022108 185.72471815 -304.125 216.6875 C-289.77248685 226.24109889 -275.43713223 232.20595104 -258 230 C-230.12279837 223.92635266 -207.19227856 203.33431776 -192 180 C-188.74664499 174.80034874 -185.81396799 169.44787358 -183 164 C-182.66403809 163.35401855 -182.32807617 162.70803711 -181.98193359 162.04248047 C-170.0528551 138.78339471 -162.89222242 113.17900328 -155.74609375 88.13671875 C-144.38901492 48.34160611 -129.84639163 9.56890958 -91.828125 -11.78125 C-60.73038713 -27.88261682 -27.25307949 -19.88418726 0 0 Z " fill="#563C3C" transform="translate(1225,195)"/>
<path d="M0 0 C12.37175207 10.54289952 23.74821163 22.03849941 33.43237305 35.10229492 C34.7372559 36.85698547 36.06551828 38.59179539 37.39819336 40.32543945 C57.32895368 66.53343436 71.65686801 96.25079701 85.73413086 125.8527832 C86.23299805 126.90143555 86.73186523 127.95008789 87.24584961 129.03051758 C87.93614258 130.48167969 87.93614258 130.48167969 88.64038086 131.9621582 C114.58852872 186.49142083 143.82647518 239.79192733 185.73413086 283.8527832 C186.22284668 284.37018066 186.7115625 284.88757813 187.21508789 285.4206543 C207.41090794 306.68332141 236.02365143 327.8532005 266.35131836 329.09106445 C295.35737801 329.70128237 318.2545066 318.38565109 339.14038086 298.6652832 C377.02575238 262.16368654 399.92615864 210.19190171 418.73413086 161.8527832 C419.03077637 161.09191406 419.32742188 160.33104492 419.63305664 159.54711914 C422.15377237 153.03954126 424.51861275 146.48246651 426.81225586 139.8918457 C435.50929291 115.0257486 446.21854733 94.78857855 464.73413086 75.8527832 C465.38510742 75.13993164 466.03608398 74.42708008 466.70678711 73.69262695 C483.46293832 55.75802115 507.14094338 43.71024122 530.73413086 37.8527832 C532.28874023 37.45833008 532.28874023 37.45833008 533.87475586 37.0559082 C551.95635873 33.31837018 573.10679033 34.6182504 588.90991211 44.7512207 C594.24918198 48.72428736 598.99756722 53.19875407 603.73413086 57.8527832 C604.76901633 58.84915827 605.80417405 59.84525065 606.83959961 60.84106445 C613.32181961 67.13705493 619.12184466 73.76213869 624.73413086 80.8527832 C626.29582158 82.77601957 627.86399161 84.69387849 629.43188477 86.61206055 C634.11969235 92.35070127 638.74825844 98.12810307 643.29663086 103.9777832 C648.47676779 110.62590991 653.92119465 117.02723292 659.45483398 123.38256836 C660.51584632 124.60192261 661.57106057 125.82631921 662.62475586 127.05200195 C664.30967913 129.00275049 666.01523348 130.93187108 667.73413086 132.8527832 C668.16161621 133.33070313 668.58910156 133.80862305 669.02954102 134.30102539 C696.41147015 164.78716646 732.0287894 188.69920228 774.05224609 190.97851562 C801.38730053 191.886343 821.69841358 179.61313717 841.34301758 161.35766602 C847.59669515 155.41230929 853.28980779 149.18394771 858.66381836 142.4230957 C860.57498393 140.05036562 862.5573886 137.79138504 864.60913086 135.5402832 C868.35562454 131.37341524 871.80301988 126.99905734 875.23876953 122.57714844 C879.63874446 116.93077705 884.1837572 111.41055917 888.74780273 105.89648438 C891.82186856 102.18057598 894.86981954 98.45008693 897.85913086 94.6652832 C911.07275225 78.05629872 925.03243992 62.0205584 941.73413086 48.8527832 C942.64936523 48.10899414 943.56459961 47.36520508 944.50756836 46.59887695 C963.71349871 31.47091812 985.14147389 23.57618723 1009.73413086 25.8527832 C1014.20357907 26.51492368 1018.41484168 27.54066537 1022.73413086 28.8527832 C1023.7744043 29.14282227 1024.81467773 29.43286133 1025.88647461 29.73168945 C1059.98188337 39.60902605 1089.73131434 59.84564447 1119.46459961 78.57250977 C1166.79580015 108.33803212 1220.03211639 138.81045085 1278.12866211 127.0168457 C1305.74832093 120.4805743 1328.88739538 105.65269163 1350.07104492 87.28881836 C1405.0052193 39.85446521 1471.53309419 12.94623934 1544.51489258 18.12084961 C1581.74706578 21.86365445 1620.72461215 37.06462882 1645.55873108 65.97702026 C1650.66345141 72.56010725 1651.70873377 77.33064603 1651.41772461 85.5480957 C1651.40781998 86.62155243 1651.39791534 87.69500916 1651.38771057 88.80099487 C1651.34884936 92.19470924 1651.26107791 95.58506393 1651.17163086 98.9777832 C1651.13648061 101.29284032 1651.10454816 103.60794866 1651.07592773 105.9230957 C1650.99918134 111.56745102 1650.88238069 117.20987705 1650.73413086 122.8527832 C1650.12311523 122.08474365 1649.51209961 121.3167041 1648.88256836 120.52539062 C1632.28569546 99.87925794 1611.81018132 86.22989819 1586.73413086 77.8527832 C1585.47287814 77.3575112 1584.21249571 76.86001859 1582.95288086 76.3605957 C1578.09425341 74.52506214 1573.11000321 73.41037325 1568.04663086 72.2902832 C1567.14235352 72.08209961 1566.23807617 71.87391602 1565.30639648 71.65942383 C1562.45555138 71.01853617 1559.59966145 70.42436066 1556.73413086 69.8527832 C1555.77466553 69.65934326 1554.8152002 69.46590332 1553.82666016 69.26660156 C1543.88126111 67.49072243 1533.99000235 67.49639957 1523.92163086 67.5402832 C1523.01339569 67.54277069 1522.10516052 67.54525818 1521.16940308 67.54782104 C1457.50706958 67.8173305 1399.19661992 94.63095479 1351.69604492 136.23168945 C1323.80837011 160.6035764 1290.27726721 179.3412439 1252.42163086 179.1027832 C1251.20540039 179.11051758 1249.98916992 179.11825195 1248.73608398 179.1262207 C1236.17058008 179.09952818 1224.22909626 177.29139405 1212.10913086 174.0402832 C1211.10986572 173.7745752 1210.11060059 173.50886719 1209.08105469 173.23510742 C1202.00564447 171.30529261 1195.38216955 168.95869104 1188.73413086 165.8527832 C1187.41026639 165.28122296 1186.08459169 164.7138455 1184.75756836 164.1496582 C1159.44862574 153.31225367 1136.02925326 139.0987879 1112.84179688 124.34790039 C1068.87770598 95.41516514 1068.87770598 95.41516514 1019.73413086 77.8527832 C1018.91944336 77.65040039 1018.10475586 77.44801758 1017.26538086 77.23950195 C1002.75515369 73.94783005 987.69473823 74.94639634 973.73413086 79.8527832 C972.7119043 80.2034082 971.68967773 80.5540332 970.63647461 80.9152832 C946.57314724 90.04603193 924.98629322 111.1021483 909.17553711 130.8449707 C906.46940022 134.17893135 903.67201798 137.42161378 900.85913086 140.6652832 C896.40824105 145.81905619 892.13326106 151.07936101 887.95385742 156.45483398 C882.81172365 163.06378258 877.51729764 169.54664977 872.21948242 176.03100586 C870.88358189 177.66948216 869.55451402 179.31352368 868.22631836 180.95825195 C863.912903 186.28614653 859.4697767 191.45092427 854.85131836 196.5168457 C852.94332883 198.62197068 851.08366017 200.75891954 849.23413086 202.9152832 C833.05221442 221.34571195 811.189823 239.00943703 785.82397461 241.1887207 C761.47661706 241.72024545 739.01985091 235.33170655 717.73413086 223.8527832 C716.67194336 223.2855957 715.60975586 222.7184082 714.51538086 222.1340332 C702.96849966 215.69208896 693.07234441 207.42019708 683.48803711 198.39575195 C681.54911188 196.60534015 679.61992553 194.91368133 677.58178711 193.24731445 C675.32977968 191.35365115 673.47676113 189.59802178 671.60913086 187.3527832 C668.99283559 184.27546675 666.29338101 181.30230768 663.5222168 178.36352539 C658.38944425 172.90486253 653.59425668 167.29947997 649.02026367 161.3659668 C645.35402961 156.61290961 641.56706647 151.97222807 637.73413086 147.3527832 C633.43320342 142.1693157 629.22095725 136.93720664 625.10913086 131.6027832 C620.53800254 125.69297939 615.59546401 120.21296841 610.46069336 114.7902832 C608.60784173 112.83009081 606.92050718 110.85681728 605.20678711 108.7590332 C594.03728194 95.63089443 578.75191427 87.78704492 561.73413086 85.8527832 C528.8105827 84.34026977 497.44776547 96.00642901 472.88647461 117.95043945 C471.83283366 118.9147721 470.78209214 119.88228134 469.73413086 120.8527832 C469.19159668 121.35148926 468.6490625 121.85019531 468.09008789 122.36401367 C448.94196399 140.16407371 437.79278185 160.91147777 429.03100586 185.27661133 C420.73671178 208.14837707 411.71845971 230.66651431 401.73413086 252.8527832 C401.11610596 254.22974365 401.11610596 254.22974365 400.4855957 255.63452148 C385.45096575 288.88751003 366.50664921 320.81196082 340.73413086 346.8527832 C340.15373047 347.44784668 339.57333008 348.04291016 338.9753418 348.65600586 C326.23213839 361.61194474 310.28467774 371.77826406 292.73413086 376.8527832 C291.61651367 377.18729492 291.61651367 377.18729492 290.47631836 377.52856445 C266.4725821 383.50915637 242.06801887 375.32987132 221.51147461 363.1965332 C215.94226733 359.80207546 210.78978365 355.96877278 205.73413086 351.8527832 C205.19079102 351.41095703 204.64745117 350.96913086 204.08764648 350.51391602 C191.97635638 340.59149647 180.57610207 329.84334968 170.85913086 317.53637695 C168.63383082 314.72611752 166.31501957 312.01338877 163.98413086 309.2902832 C128.0310131 266.08006464 102.15224583 213.81599724 78.9074707 162.92456055 C62.94009601 128.01824262 43.80649263 94.2424247 17.13891602 66.32495117 C16.19590615 65.3367083 15.25812645 64.34345023 14.32543945 63.34545898 C-2.33666006 45.55159422 -26.24143862 27.92293279 -51.51928711 26.74804688 C-77.02054499 26.11308958 -97.38661872 32.04262799 -116.14453125 49.77416992 C-117.53149666 51.12025291 -118.89919206 52.48610612 -120.26586914 53.8527832 C-120.98258789 54.56950195 -121.69930664 55.2862207 -122.43774414 56.0246582 C-145.1226372 80.16138442 -153.0354799 113.02318524 -161.98464966 143.92562866 C-168.11503823 165.06242508 -174.57485334 186.03109234 -184.26586914 205.8527832 C-184.61617187 206.57256348 -184.96647461 207.29234375 -185.32739258 208.03393555 C-192.94312057 223.48777353 -202.34116082 236.46443925 -214.26586914 248.8527832 C-215.15338867 249.83504883 -215.15338867 249.83504883 -216.05883789 250.8371582 C-228.61099259 264.35009511 -249.94581132 276.42688473 -268.46679688 277.37207031 C-288.3241979 277.76676543 -304.77193919 267.42058355 -318.98071289 254.35668945 C-357.1726516 217.4503139 -375.959832 161.88172614 -385.79492188 111.12231445 C-389.70916576 91.15874089 -399.3783059 74.42000791 -416.36352539 62.70043945 C-435.83380103 50.30549951 -458.64966296 47.57164264 -481.24438477 51.88452148 C-521.64776411 61.24366177 -562.19908178 92.9721126 -587.57836914 125.1027832 C-591.52445316 130.00345654 -595.66874973 134.66691448 -599.92602539 139.2980957 C-601.92421763 141.47976135 -603.88735803 143.68289629 -605.82836914 145.9152832 C-616.22877565 157.84659067 -626.76156774 169.08702715 -639.26586914 178.8527832 C-640.20172852 179.59399414 -641.13758789 180.33520508 -642.10180664 181.09887695 C-657.7342231 193.18990148 -674.17047166 201.54850612 -693.26586914 206.8527832 C-693.88671387 207.0293042 -694.50755859 207.2058252 -695.1472168 207.38769531 C-713.79099465 211.48038911 -733.85444647 206.58613451 -750.26586914 197.8527832 C-751.30485352 197.3165332 -752.34383789 196.7802832 -753.41430664 196.2277832 C-772.93103757 185.57297996 -789.25159339 167.61203819 -802.26586914 149.8527832 C-802.77182617 149.16990234 -803.2777832 148.48702148 -803.79907227 147.78344727 C-824.74413775 119.47070686 -824.74413775 119.47070686 -830.89086914 106.6027832 C-841.67024678 84.13710913 -860.69730187 66.30140622 -884.26586914 57.8527832 C-890.19050936 56.19830629 -896.21519631 54.94930706 -902.26586914 53.8527832 C-903.19633057 53.67626221 -904.12679199 53.49974121 -905.08544922 53.31787109 C-911.18074712 52.42652677 -917.36558973 52.60950959 -923.51586914 52.6027832 C-924.23384674 52.60144379 -924.95182434 52.60010437 -925.69155884 52.59872437 C-936.82420497 52.60323371 -947.39908683 53.34417495 -958.26586914 55.8527832 C-959.35383789 56.08094727 -960.44180664 56.30911133 -961.56274414 56.54418945 C-964.81503091 57.25208769 -968.03751032 58.04291999 -971.26586914 58.8527832 C-972.22323975 59.07973877 -972.22323975 59.07973877 -973.19995117 59.3112793 C-997.86042783 65.15788912 -1021.28089 74.30167572 -1044.26586914 84.8527832 C-1112.40331372 115.95754111 -1112.40331372 115.95754111 -1148.26586914 122.8527832 C-1148.95406738 122.99796387 -1149.64226562 123.14314453 -1150.35131836 123.29272461 C-1169.34410148 127.28872034 -1188.94751684 128.65470395 -1206.51586914 119.2277832 C-1217.6463956 111.95151672 -1222.9056375 101.55777883 -1228.26586914 89.8527832 C-1228.59586914 89.1927832 -1228.92586914 88.5327832 -1229.26586914 87.8527832 C-1229.3559088 86.27987113 -1229.38343423 84.70316745 -1229.37939453 83.12768555 C-1229.379319 82.14681976 -1229.37924347 81.16595398 -1229.37916565 80.15536499 C-1229.37400436 79.09387238 -1229.36884308 78.03237976 -1229.36352539 76.9387207 C-1229.36211044 75.8539444 -1229.3606955 74.76916809 -1229.35923767 73.65151978 C-1229.35362717 70.1769132 -1229.34107286 66.70237039 -1229.32836914 63.2277832 C-1229.32335549 60.87622163 -1229.31879235 58.52465905 -1229.31469727 56.1730957 C-1229.30365432 50.39963634 -1229.28690593 44.62621433 -1229.26586914 38.8527832 C-1226.63929577 42.22746014 -1224.92794973 45.58419216 -1223.14086914 49.4777832 C-1217.29548971 61.56443797 -1209.23313432 69.130161 -1196.57836914 73.6027832 C-1149.66065672 88.80023431 -1088.99327021 55.37841641 -1047.61502075 36.32885742 C-1028.97825373 27.76372164 -1009.93076385 19.75225162 -990.26586914 13.8527832 C-989.59007812 13.64991699 -988.91428711 13.44705078 -988.21801758 13.23803711 C-976.69724351 9.81691975 -965.07716286 7.06574039 -953.26586914 4.8527832 C-951.47536133 4.51053711 -951.47536133 4.51053711 -949.64868164 4.16137695 C-920.34321168 -0.58996342 -887.17539887 2.04796807 -862.34399414 19.53637695 C-847.55017966 30.66928557 -836.99042788 44.30744187 -828.19628906 60.4206543 C-816.72194001 81.42643696 -802.43031471 101.77404551 -785.85961914 119.08325195 C-783.26586914 121.8527832 -783.26586914 121.8527832 -781.14086914 124.51293945 C-767.83854669 141.11312935 -745.01480758 153.5309738 -724.26586914 157.8527832 C-708.78213019 158.93690567 -693.66616484 159.01639751 -679.26586914 152.8527832 C-678.43506836 152.50393066 -677.60426758 152.15507812 -676.74829102 151.7956543 C-664.92698041 146.73398403 -654.33393462 140.8404576 -644.26586914 132.8527832 C-642.84274414 131.74290039 -642.84274414 131.74290039 -641.39086914 130.6105957 C-627.6302228 119.62553428 -614.5002296 107.38426654 -603.51977539 93.61450195 C-600.36018948 89.74305094 -596.98667282 86.08537164 -593.60571289 82.4074707 C-591.60752066 80.22580506 -589.64438025 78.02267012 -587.70336914 75.7902832 C-587.1477832 75.15477539 -586.59219727 74.51926758 -586.01977539 73.86450195 C-584.7725699 72.43396559 -583.53096003 70.99854231 -582.29321289 69.55981445 C-576.54213222 62.99460621 -570.32069926 57.12364727 -563.84741211 51.2902832 C-562.39943184 49.97418134 -560.97398728 48.63339543 -559.55102539 47.2902832 C-530.70878778 20.22628881 -494.37199534 -0.28653449 -454.15649414 0.56762695 C-447.52306497 0.81737326 -441.56404546 1.64087079 -435.26586914 3.8527832 C-434.25911133 4.20469727 -433.25235352 4.55661133 -432.21508789 4.91918945 C-412.92505852 12.34597332 -398.34224636 26.00850979 -389.54321289 44.7277832 C-386.39277915 52.43526636 -384.38404822 60.22605316 -383.32836914 68.4777832 C-378.10350563 108.46127261 -360.06829182 151.38902652 -336.26586914 183.8527832 C-335.83983398 184.43817871 -335.41379883 185.02357422 -334.97485352 185.62670898 C-321.76924583 203.58144447 -303.98063446 222.42005848 -280.94555664 226.55981445 C-258.82104707 228.97867483 -241.62363925 221.52166205 -224.19726562 207.95825195 C-187.1139142 178.09216817 -173.18697639 131.05007614 -160.69311523 87.00878906 C-149.37262975 47.21689578 -135.28523787 7.62182381 -97.4206543 -14.21118164 C-65.05213635 -31.84891239 -27.39998217 -22.52426725 0 0 Z " fill="#FDC5D8" transform="translate(1229.265869140625,149.147216796875)"/>
</svg>
