<?xml version="1.0" encoding="UTF-8"?>
<svg version="1.1" xmlns="http://www.w3.org/2000/svg" width="568" height="314">
<path d="M0 0 C187.44 0 374.88 0 568 0 C568 90.75 568 181.5 568 275 C552.0104626 275 541.2038839 267.92936017 529.91015625 257.00390625 C512.49158401 239.44741064 500.75338409 215.29828611 490.375 193.1875 C481.20793923 173.72805162 470.50004449 153.04368002 449.4375 144.5 C441.29849044 141.91031514 434.27355069 142.10422214 426.44921875 145.6171875 C410.99223248 154.34409841 406.46245086 170.45652373 401.82055664 186.45776367 C396.57606907 204.47819455 389.48971678 223.08340114 372.875 233.4375 C366.06343 236.93229451 358.96222006 237.53245031 351.609375 235.26171875 C349.58583431 234.32332106 347.82835979 233.27392661 346 232 C345.030625 231.34 344.06125 230.68 343.0625 230 C328.02115899 216.42214081 320.31356401 195.03725094 316.5625 175.6875 C314.6696446 166.56737852 310.80057652 160.22752623 303 155 C295.00272886 150.50047377 286.31312252 151.14992614 277.6875 153.4375 C258.99180314 159.77277168 244.41380987 175.30677252 232.1796875 190.21875 C223.10185943 201.27001896 210.40830044 209.81163537 196 211.3125 C185.88167189 211.09157581 177.26208144 206.73240947 170 200 C169.35933594 199.44957031 168.71867188 198.89914063 168.05859375 198.33203125 C159.63973508 190.62749998 153.3864459 180.27867425 147.75 170.4375 C142.63502448 161.74204162 136.1886465 157.01899106 126.6953125 153.921875 C104.82452116 148.46573678 82.66161598 159.0437789 63.14648438 167.63525391 C25.30240975 184.04962209 25.30240975 184.04962209 9.01171875 178.05078125 C4.3591957 175.62062843 2.30419206 171.60838412 0 167 C0 111.89 0 56.78 0 0 Z " fill="#D6356C" transform="translate(0,0)"/>
<path d="M0 0 C3.58297887 2.78097488 6.8188393 5.77031312 10 9 C10.69867188 9.69996094 11.39734375 10.39992188 12.1171875 11.12109375 C22.60029233 22.23644809 28.84232339 36.34562799 35.42626953 49.94628906 C44.33933804 68.31278261 53.48343675 86.52090916 67 102 C67.68191406 102.825 68.36382813 103.65 69.06640625 104.5 C80.45213121 117.8614232 91.60794718 124.26079472 109 126 C109 140.19 109 154.38 109 169 C93.0104626 169 82.2038839 161.92936017 70.91015625 151.00390625 C53.49158401 133.44741064 41.75338409 109.29828611 31.375 87.1875 C22.20793923 67.72805162 11.50004449 47.04368002 -9.5625 38.5 C-17.70150956 35.91031514 -24.72644931 36.10422214 -32.55078125 39.6171875 C-48.00776752 48.34409841 -52.53754914 64.45652373 -57.17944336 80.45776367 C-62.42393093 98.47819455 -69.51028322 117.08340114 -86.125 127.4375 C-92.93657 130.93229451 -100.03777994 131.53245031 -107.390625 129.26171875 C-109.41416569 128.32332106 -111.17164021 127.27392661 -113 126 C-113.969375 125.34 -114.93875 124.68 -115.9375 124 C-130.97884101 110.42214081 -138.68643599 89.03725094 -142.4375 69.6875 C-144.3303554 60.56737852 -148.19942348 54.22752623 -156 49 C-163.99727114 44.50047377 -172.68687748 45.14992614 -181.3125 47.4375 C-200.00819686 53.77277168 -214.58619013 69.30677252 -226.8203125 84.21875 C-235.89814057 95.27001896 -248.59169956 103.81163537 -263 105.3125 C-273.11832811 105.09157581 -281.73791856 100.73240947 -289 94 C-289.64066406 93.44957031 -290.28132812 92.89914063 -290.94140625 92.33203125 C-299.36026492 84.62749998 -305.6135541 74.27867425 -311.25 64.4375 C-316.36497552 55.74204162 -322.8113535 51.01899106 -332.3046875 47.921875 C-354.17547884 42.46573678 -376.33838402 53.0437789 -395.85351562 61.63525391 C-433.69759025 78.04962209 -433.69759025 78.04962209 -449.98828125 72.05078125 C-454.46441112 69.7127639 -457.0615705 65.57501169 -459 61 C-459.24050903 58.84857178 -459.24050903 58.84857178 -459.22705078 56.50683594 C-459.22689972 55.62622498 -459.22674866 54.74561401 -459.22659302 53.83831787 C-459.21627045 52.89651672 -459.20594788 51.95471558 -459.1953125 50.984375 C-459.1924826 50.01340881 -459.18965271 49.04244263 -459.18673706 48.04205322 C-459.17555292 44.94457615 -459.15045142 41.8473895 -459.125 38.75 C-459.11496792 36.64844168 -459.10584247 34.54687882 -459.09765625 32.4453125 C-459.07561934 27.29676331 -459.04110145 22.14843087 -459 17 C-457.67934716 18.98097926 -456.38684309 20.98105106 -455.125 23 C-452.23159557 27.08480626 -449.88759393 29.05455869 -445 30 C-442.93996346 30.11858309 -440.87590994 30.17517378 -438.8125 30.1875 C-437.74644531 30.20167969 -436.68039062 30.21585938 -435.58203125 30.23046875 C-428.4941742 29.77443433 -421.71999397 27.78356176 -415 25.5625 C-414.24871826 25.31443604 -413.49743652 25.06637207 -412.72338867 24.81079102 C-404.6226084 22.03024193 -396.87375234 18.48829563 -389.06860352 14.97900391 C-381.17383969 11.45143981 -373.32457464 8.35948066 -365 6 C-363.1746875 5.45472656 -363.1746875 5.45472656 -361.3125 4.8984375 C-356.0977896 3.6242013 -350.9046256 3.67009894 -345.5625 3.6875 C-344.57701172 3.67138672 -343.59152344 3.65527344 -342.57617188 3.63867188 C-331.15811866 3.63110524 -323.3306702 6.88392879 -315.15625 14.78125 C-311.09430854 19.12823998 -308.45963445 23.72895444 -305.73828125 28.98828125 C-302.41647938 34.74358292 -298.15487381 39.83040454 -294 45 C-292.97519531 46.33224609 -292.97519531 46.33224609 -291.9296875 47.69140625 C-286.30280165 54.42316645 -276.92747386 60.44750577 -268.06640625 61.2734375 C-252.93541679 61.7120169 -242.38226101 55.61004677 -231.37109375 45.61328125 C-226.43361709 40.81149097 -222.08787713 35.7154117 -217.84375 30.30078125 C-207.96138488 17.96876207 -194.02066317 8.00688772 -179 3 C-169.28437669 2.27417969 -160.04239977 1.67992904 -152 8 C-145.36932916 14.20433329 -142.37717706 19.48087169 -140.6875 28.375 C-136.46254252 48.45400586 -128.15471426 70.96475662 -111.17578125 83.66015625 C-105.56747013 87.1137482 -100.47698587 88.00613373 -94 87 C-79.76530726 82.01694154 -72.40144758 72.03125938 -66 59 C-62.72448742 51.93425143 -60.60400087 44.66966487 -58.51782227 37.18896484 C-53.7576321 20.18661212 -48.31395497 5.36570311 -32.33203125 -3.87109375 C-21.53258777 -9.09896505 -9.54613 -6.44363775 0 0 Z " fill="#573D3D" transform="translate(459,106)"/>
<path d="M0 0 C2.3180397 1.72864053 4.49723294 3.54280113 6.6640625 5.45703125 C7.32019531 6.03066406 7.97632813 6.60429688 8.65234375 7.1953125 C23.69864877 21.27672421 32.10098417 40.85128224 40.68334961 59.17553711 C45.31132759 69.01247965 50.40097617 78.43613255 56.4765625 87.45703125 C57.25531738 88.6169458 57.25531738 88.6169458 58.04980469 89.80029297 C62.25694096 95.99449207 66.67327528 101.86358293 71.6640625 107.45703125 C72.62699219 108.54371094 72.62699219 108.54371094 73.609375 109.65234375 C83.95430436 120.66738999 94.77407109 124.96803211 109.6640625 126.45703125 C109.6640625 136.35703125 109.6640625 146.25703125 109.6640625 156.45703125 C93.48874511 156.45703125 84.1470772 150.73114179 72.5390625 139.70703125 C54.91407479 121.1410791 43.51349407 97.89522831 32.51269531 75.06787109 C23.6731008 56.77357664 13.66136351 39.14292872 -4.3359375 28.45703125 C-5.9446875 27.49796875 -5.9446875 27.49796875 -7.5859375 26.51953125 C-16.05349826 24.12038904 -25.09814197 24.350702 -33.1015625 28.15625 C-49.2187128 37.53913645 -53.39870988 55.74301724 -58.3359375 72.45703125 C-63.72125218 90.37168412 -71.13411618 107.16553652 -88.3359375 116.45703125 C-93.91438695 119.02081943 -99.53909495 119.61199064 -105.48046875 117.8046875 C-120.89850896 110.71907928 -129.28031245 94.28498536 -135.22460938 79.20214844 C-138.06831867 71.52150635 -140.34751553 63.88499635 -141.8359375 55.83203125 C-143.53320073 47.38473264 -147.00261608 42.87131841 -154.0234375 38.01953125 C-161.42666123 33.32698702 -169.82552295 33.60501495 -178.3359375 34.45703125 C-196.32115666 38.77938756 -212.12332737 54.79842189 -223.23046875 68.859375 C-232.44260025 80.22499179 -244.88315855 91.02386242 -259.89453125 92.90234375 C-272.17347316 93.29886502 -280.42021882 88.79149 -289.69702148 80.99829102 C-292.77045411 78.10799157 -295.24539292 74.75974882 -297.7734375 71.39453125 C-298.34473389 70.64300781 -298.91603027 69.89148438 -299.50463867 69.1171875 C-303.36340632 63.96410311 -306.60171917 58.72744319 -309.73828125 53.109375 C-314.29731061 45.54071746 -320.0719443 39.78043246 -328.3359375 36.45703125 C-351.75455196 31.05500013 -372.17753164 39.26951844 -393.12744141 48.56811523 C-400.58806061 51.8750944 -408.06365286 55.0163385 -415.7734375 57.70703125 C-416.94205322 58.11961182 -416.94205322 58.11961182 -418.13427734 58.54052734 C-427.19868024 61.61167029 -439.10223966 63.7744186 -448.3359375 60.33203125 C-453.42061495 57.15410784 -456.49608459 53.22645287 -458.3359375 47.45703125 C-458.56298828 44.13549805 -458.56298828 44.13549805 -458.53125 40.40625 C-458.5284201 39.74744339 -458.52559021 39.08863678 -458.52267456 38.40986633 C-458.51154674 36.32123063 -458.48645698 34.23303569 -458.4609375 32.14453125 C-458.45089809 30.72201143 -458.44177392 29.29948485 -458.43359375 27.87695312 C-458.41163197 24.40350444 -458.37715396 20.93031092 -458.3359375 17.45703125 C-457.03746494 19.40474009 -455.78399905 21.38349937 -454.5859375 23.39453125 C-452.07005935 26.81892095 -450.04543906 28.40300973 -446.3359375 30.45703125 C-442.82779947 31.01266734 -442.82779947 31.01266734 -439.1484375 30.83203125 C-437.93800781 30.81914063 -436.72757812 30.80625 -435.48046875 30.79296875 C-425.76587142 30.1802499 -417.27688669 27.56965843 -408.3359375 23.83203125 C-406.70942261 23.1676001 -406.70942261 23.1676001 -405.05004883 22.48974609 C-397.56860229 19.42277669 -390.1297873 16.25558268 -382.69018555 13.08886719 C-376.67600638 10.55008677 -370.6138499 8.26607306 -364.3359375 6.45703125 C-363.1396875 6.10125 -361.9434375 5.74546875 -360.7109375 5.37890625 C-350.06266059 2.77540944 -334.65946316 2.36162977 -324.6171875 7.0078125 C-317.27849867 11.66989051 -312.06841761 17.13670114 -307.88671875 24.72265625 C-298.9843876 40.4194618 -288.0368987 55.55671085 -270.3359375 61.45703125 C-256.58446115 62.73879336 -246.8250105 58.99226637 -235.99609375 50.6875 C-228.87557064 44.71713481 -222.89845944 38.05378543 -217.1796875 30.7578125 C-207.29732238 18.42579332 -193.35660067 8.46391897 -178.3359375 3.45703125 C-168.62031419 2.73121094 -159.37833727 2.13696029 -151.3359375 8.45703125 C-144.70526666 14.66136454 -141.71311456 19.93790294 -140.0234375 28.83203125 C-135.79848002 48.91103711 -127.49065176 71.42178787 -110.51171875 84.1171875 C-104.89945337 87.57321447 -99.8167673 88.45615918 -93.3359375 87.45703125 C-78.9949892 82.54600338 -71.67876954 72.62157423 -65.265625 59.5703125 C-62.12865616 52.96420765 -59.83138254 46.43710299 -58.015625 39.3515625 C-53.8444688 23.14169214 -49.17377243 7.36079519 -34.1484375 -1.98046875 C-23.23180915 -8.28976419 -10.3266571 -6.82111966 0 0 Z " fill="#573C3D" transform="translate(458.3359375,75.54296875)"/>
<path d="M0 0 C3.58297887 2.78097488 6.8188393 5.77031312 10 9 C10.69867188 9.69996094 11.39734375 10.39992188 12.1171875 11.12109375 C22.60029233 22.23644809 28.84232339 36.34562799 35.42626953 49.94628906 C44.33933804 68.31278261 53.48343675 86.52090916 67 102 C67.68191406 102.825 68.36382813 103.65 69.06640625 104.5 C78.67365029 115.7743329 89.67584944 124.14537912 104.6875 125.75 C106.110625 125.8325 107.53375 125.915 109 126 C109 132.6 109 139.2 109 146 C92.8912705 146 83.52614908 140.38096856 72 129.4375 C54.22640444 110.99002404 42.85389032 87.40452036 31.83984375 64.59765625 C23.00413975 46.30677086 12.9928936 28.68328057 -5 18 C-6.0725 17.360625 -7.145 16.72125 -8.25 16.0625 C-16.71756076 13.66335779 -25.76220447 13.89367075 -33.765625 17.69921875 C-49.96638511 27.13078015 -54.2760689 45.6385352 -58.9765625 62.50390625 C-64.38500232 81.29235588 -72.76741458 97.0930081 -90.375 106.875 C-96.39612606 108.74362533 -102.2046329 109.12553804 -108.0625 106.5 C-127.07941407 95.42589341 -135.41776183 73.04247675 -141.0234375 52.85546875 C-141.82068571 49.70793281 -142.43721662 46.64029458 -142.9375 43.4375 C-144.30135504 36.13467621 -148.71008175 31.66102293 -154.6875 27.5625 C-162.09072373 22.86995577 -170.48958545 23.1479837 -179 24 C-196.98521916 28.32235631 -212.78738987 44.34139064 -223.89453125 58.40234375 C-233.04576875 69.69283158 -245.41170485 80.4366087 -260.30078125 82.4453125 C-272.38425888 82.87128703 -281.24539309 78.18903483 -290.35888672 70.54125977 C-293.43474339 67.65255356 -295.909102 64.30318802 -298.4375 60.9375 C-299.00879639 60.18597656 -299.58009277 59.43445313 -300.16870117 58.66015625 C-304.02746882 53.50707186 -307.26578167 48.27041194 -310.40234375 42.65234375 C-314.96137311 35.08368621 -320.7360068 29.32340121 -329 26 C-344.04925247 22.52527483 -359.76491921 24.53171261 -374 30 C-375.16660156 30.43441406 -376.33320313 30.86882812 -377.53515625 31.31640625 C-381.38523146 32.81294711 -385.1954677 34.39239382 -389 36 C-392.00424882 37.26618864 -395.00907836 38.53093015 -398.01538086 39.79223633 C-400.07035641 40.65563289 -402.12339097 41.52366981 -404.17407227 42.3972168 C-415.92051508 47.34839087 -426.7093118 51.06202761 -439.5625 51.3125 C-440.82191406 51.34988281 -442.08132813 51.38726562 -443.37890625 51.42578125 C-448.68843848 50.80146732 -451.68841433 48.42088448 -455.25 44.5625 C-459.28575793 38.65299732 -459.25280963 33.64329345 -459.125 26.6875 C-459.11597656 25.75615234 -459.10695313 24.82480469 -459.09765625 23.86523438 C-459.07418263 21.5765564 -459.04134729 19.28841328 -459 17 C-457.67934716 18.98097926 -456.38684309 20.98105106 -455.125 23 C-452.23159557 27.08480626 -449.88759393 29.05455869 -445 30 C-442.93996346 30.11858309 -440.87590994 30.17517378 -438.8125 30.1875 C-437.74644531 30.20167969 -436.68039062 30.21585938 -435.58203125 30.23046875 C-428.4941742 29.77443433 -421.71999397 27.78356176 -415 25.5625 C-414.24871826 25.31443604 -413.49743652 25.06637207 -412.72338867 24.81079102 C-404.6226084 22.03024193 -396.87375234 18.48829563 -389.06860352 14.97900391 C-381.17383969 11.45143981 -373.32457464 8.35948066 -365 6 C-363.1746875 5.45472656 -363.1746875 5.45472656 -361.3125 4.8984375 C-356.0977896 3.6242013 -350.9046256 3.67009894 -345.5625 3.6875 C-344.57701172 3.67138672 -343.59152344 3.65527344 -342.57617188 3.63867188 C-331.15811866 3.63110524 -323.3306702 6.88392879 -315.15625 14.78125 C-311.09430854 19.12823998 -308.45963445 23.72895444 -305.73828125 28.98828125 C-302.41647938 34.74358292 -298.15487381 39.83040454 -294 45 C-292.97519531 46.33224609 -292.97519531 46.33224609 -291.9296875 47.69140625 C-286.30280165 54.42316645 -276.92747386 60.44750577 -268.06640625 61.2734375 C-252.93541679 61.7120169 -242.38226101 55.61004677 -231.37109375 45.61328125 C-226.43361709 40.81149097 -222.08787713 35.7154117 -217.84375 30.30078125 C-207.96138488 17.96876207 -194.02066317 8.00688772 -179 3 C-169.28437669 2.27417969 -160.04239977 1.67992904 -152 8 C-145.36932916 14.20433329 -142.37717706 19.48087169 -140.6875 28.375 C-136.46254252 48.45400586 -128.15471426 70.96475662 -111.17578125 83.66015625 C-105.56747013 87.1137482 -100.47698587 88.00613373 -94 87 C-79.76530726 82.01694154 -72.40144758 72.03125938 -66 59 C-62.72448742 51.93425143 -60.60400087 44.66966487 -58.51782227 37.18896484 C-53.7576321 20.18661212 -48.31395497 5.36570311 -32.33203125 -3.87109375 C-21.53258777 -9.09896505 -9.54613 -6.44363775 0 0 Z " fill="#FBC3D7" transform="translate(459,106)"/>
</svg>
